<?xml version="1.0" encoding="UTF-8" standalone="no"?>
<!DOCTYPE svg PUBLIC "-//W3C//DTD SVG 1.1//EN" "http://www.w3.org/Graphics/SVG/1.1/DTD/svg11.dtd">
<svg width="100%" height="100%" viewBox="0 0 512 512" version="1.1" xmlns="http://www.w3.org/2000/svg" xmlns:xlink="http://www.w3.org/1999/xlink" xml:space="preserve" xmlns:serif="http://www.serif.com/" style="fill-rule:evenodd;clip-rule:evenodd;stroke-linejoin:round;stroke-miterlimit:2;">
    <rect id="Artboard1" x="0" y="0" width="512" height="512" style="fill:none;"/>
    <g id="Artboard11" serif:id="Artboard1">
        <circle cx="256" cy="256" r="256" style="fill:white;"/>
        <g transform="matrix(0.693069,0,0,0.693069,1.54576,71.2963)">
            <g transform="matrix(355.992,0,0,355.992,48,396)">
                <path d="M0.215,-0L0.022,-0.728L0.243,-0.728L0.301,-0.445C0.309,-0.41 0.315,-0.371 0.321,-0.329C0.327,-0.287 0.333,-0.245 0.339,-0.203C0.344,-0.161 0.35,-0.122 0.356,-0.086L0.317,-0.086C0.324,-0.122 0.33,-0.161 0.336,-0.203C0.343,-0.245 0.349,-0.287 0.356,-0.329C0.362,-0.371 0.37,-0.41 0.378,-0.445L0.442,-0.728L0.64,-0.728L0.704,-0.445C0.712,-0.41 0.72,-0.371 0.726,-0.329C0.733,-0.287 0.739,-0.245 0.746,-0.203C0.752,-0.161 0.758,-0.122 0.765,-0.086L0.726,-0.086C0.732,-0.122 0.738,-0.161 0.743,-0.203C0.749,-0.245 0.754,-0.287 0.76,-0.329C0.767,-0.371 0.773,-0.41 0.78,-0.445L0.839,-0.728L1.06,-0.728L0.867,-0L0.644,-0L0.571,-0.296C0.559,-0.347 0.549,-0.403 0.542,-0.462C0.534,-0.521 0.526,-0.578 0.515,-0.633L0.567,-0.633C0.555,-0.578 0.545,-0.521 0.539,-0.462C0.533,-0.403 0.524,-0.348 0.511,-0.296L0.438,-0L0.215,-0Z" style="fill:rgb(146,52,233);fill-rule:nonzero;"/>
            </g>
            <g transform="matrix(355.992,0,0,355.992,433.194,396)">
                <path d="M0.327,-0L0.128,-0L0.128,-0.168L0.319,-0.168C0.355,-0.168 0.386,-0.174 0.412,-0.185C0.437,-0.196 0.457,-0.216 0.47,-0.245C0.484,-0.273 0.49,-0.313 0.49,-0.363C0.49,-0.414 0.483,-0.454 0.47,-0.482C0.456,-0.511 0.436,-0.531 0.41,-0.542C0.384,-0.554 0.352,-0.56 0.313,-0.56L0.125,-0.56L0.125,-0.728L0.324,-0.728C0.399,-0.728 0.464,-0.713 0.518,-0.684C0.572,-0.655 0.614,-0.613 0.644,-0.559C0.674,-0.504 0.688,-0.439 0.688,-0.363C0.688,-0.288 0.674,-0.223 0.644,-0.168C0.615,-0.114 0.573,-0.072 0.519,-0.043C0.465,-0.014 0.401,-0 0.327,-0ZM0.244,-0.728L0.244,-0L0.047,-0L0.047,-0.728L0.244,-0.728Z" style="fill:rgb(146,52,233);fill-rule:nonzero;"/>
            </g>
            <g transform="matrix(355.992,0,0,355.992,690.454,396)">
            </g>
        </g>
    </g>
</svg>
